<svg width="40" height="40" viewBox="0 0 40 40" fill="none" xmlns="http://www.w3.org/2000/svg">
<path fill-rule="evenodd" clip-rule="evenodd" d="M19.6701 0L6 18.841L19.6701 40L33.3403 18.841L19.6701 0ZM9.80386 18.8362L17.0842 8.79643L18.2463 11.7088L13.37 18.426L18.0949 25.7355L16.101 28.5884L9.80386 18.8362ZM19.6701 34.1159L17.8856 31.3522L19.6701 29.1828L21.4547 31.3522L19.6701 34.1159ZM18.7192 5.82467L19.6701 5.23031L20.6211 5.82467L19.6701 7.96434L18.7192 5.82467ZM29.5364 18.8362L22.2561 8.79643L21.094 11.7088L25.9703 18.426L21.2453 25.7355L23.2393 28.5884L29.5364 18.8362Z" fill="white"/>
</svg>
